<?xml version="1.0" standalone="no"?>
<!DOCTYPE svg PUBLIC "-//W3C//DTD SVG 20010904//EN"
 "http://www.w3.org/TR/2001/REC-SVG-20010904/DTD/svg10.dtd">
<svg version="1.0" xmlns="http://www.w3.org/2000/svg"
 width="500.000000pt" height="500.000000pt" viewBox="0 0 500.000000 500.000000"
 preserveAspectRatio="xMidYMid meet">

<g transform="translate(0.000000,500.000000) scale(0.100000,-0.100000)"
fill="#000000" stroke="none">
<path d="M2430 4210 c-63 -42 -90 -45 -161 -20 -35 12 -70 18 -83 14 -11 -3
-44 -28 -72 -56 l-51 -49 -79 2 c-97 3 -116 -7 -149 -72 -28 -54 -42 -63 -124
-73 -75 -10 -97 -27 -111 -89 -18 -77 -24 -84 -91 -108 -81 -30 -99 -55 -99
-135 0 -64 0 -64 -41 -92 -80 -52 -102 -79 -95 -115 22 -122 21 -128 -28 -185
-25 -30 -46 -61 -46 -69 0 -9 15 -45 32 -79 l33 -64 -33 -64 c-17 -34 -32 -70
-32 -79 0 -9 21 -40 46 -68 50 -56 51 -61 28 -186 -7 -36 9 -55 89 -110 l47
-33 0 -63 c0 -78 19 -108 82 -126 66 -19 86 -37 98 -83 26 -101 38 -112 132
-124 70 -9 84 -17 108 -64 36 -71 53 -80 149 -80 85 0 86 -1 125 -37 l38 -36
-7 -101 c-8 -110 -33 -223 -64 -283 -13 -26 -45 -57 -95 -93 -42 -30 -76 -61
-76 -69 0 -8 19 -53 41 -100 99 -204 299 -324 539 -322 146 0 255 37 378 126
85 61 183 213 198 306 5 30 2 36 -24 51 -60 35 -108 94 -125 155 -26 90 -35
140 -43 241 l-7 92 39 35 c38 33 42 34 125 35 96 0 113 9 149 80 24 47 38 55
108 64 94 12 106 24 132 122 11 46 34 65 99 85 61 18 81 48 81 124 0 68 5 76
87 128 49 31 59 58 44 113 -20 73 -15 99 34 154 25 28 45 58 45 67 0 9 -14 45
-32 79 l-32 64 32 65 c18 36 32 72 32 80 0 9 -18 35 -40 58 -54 59 -59 78 -43
151 18 77 11 93 -64 142 l-58 39 -5 71 c-6 87 -19 104 -100 133 -65 24 -72 31
-90 108 -14 62 -36 79 -111 89 -82 10 -96 19 -124 74 -33 65 -63 79 -157 72
l-70 -5 -51 51 c-29 27 -62 53 -74 56 -12 4 -46 -2 -79 -14 -78 -27 -91 -26
-154 15 -67 42 -92 43 -150 5z m440 -772 c85 -44 133 -134 171 -325 12 -59 32
-134 45 -167 13 -32 21 -63 17 -69 -3 -6 -1 -7 5 -3 18 11 15 -17 -13 -125
-32 -126 -68 -222 -108 -284 l-32 -50 2 -122 c3 -117 2 -123 -20 -137 -12 -8
-33 -17 -46 -21 -21 -6 -23 -5 -18 14 3 12 2 19 -3 16 -4 -3 -11 21 -15 52
-15 125 -30 134 -202 135 -75 1 -110 3 -83 7 31 4 45 11 45 21 0 21 -53 25
-74 6 -10 -9 -21 -13 -26 -9 -4 5 -5 2 -1 -4 4 -8 1 -13 -8 -13 -9 0 -16 4
-16 8 0 15 -67 45 -84 39 -29 -12 -14 -41 24 -48 19 -4 -23 -6 -95 -6 -170 0
-181 -7 -200 -128 -8 -50 -25 -95 -35 -95 -5 0 -15 6 -22 13 -7 7 -17 13 -23
13 -21 -2 -34 48 -25 94 19 93 13 133 -31 216 -71 133 -137 350 -120 393 6 14
17 92 25 172 12 121 19 155 41 200 27 53 75 119 75 103 0 -5 7 2 16 14 8 12
20 20 25 16 5 -3 8 0 7 8 -4 19 85 60 141 66 25 2 74 -3 107 -12 86 -22 209
-19 324 9 126 30 175 31 230 3z m-173 -1171 c39 -21 61 -55 74 -118 25 -115
-17 -192 -121 -223 -49 -15 -55 -15 -72 0 -9 9 -20 32 -24 50 -6 33 -7 34 -59
34 -52 0 -52 0 -63 -39 -18 -57 -30 -64 -89 -46 -28 8 -63 25 -78 37 -55 43
-69 129 -37 222 31 91 79 107 303 101 98 -2 145 -7 166 -18z"/>
</g>
</svg>
